# xmcd
#
# Track frame offsets:
#	150
#	14511
#	28524
#	43938
#
# Disc length: 794 seconds
# Revision: 0
# Processed by: cddbd v1.5.2PL0 Copyright (c) Steve Scherf et al.
# Submitted via: dBpowerAMP V12.0
#
DISCID=2c031804
DTITLE=Cassadee Pope - Summer EP
DYEAR=2016
DGENRE=Country
TTITLE0=Summer
TTITLE1=Piano
TTITLE2=Kisses At Airports
TTITLE3=Alien
EXTD=
EXTT0=
EXTT1=
EXTT2=
EXTT3=
PLAYORDER=
